<?xml version="1.0" encoding="UTF-8" standalone="no"?>
<svg
   xmlns:dc="http://purl.org/dc/elements/1.1/"
   xmlns:cc="http://creativecommons.org/ns#"
   xmlns:rdf="http://www.w3.org/1999/02/22-rdf-syntax-ns#"
   xmlns:svg="http://www.w3.org/2000/svg"
   xmlns="http://www.w3.org/2000/svg"
   xmlns:xlink="http://www.w3.org/1999/xlink"
   xmlns:sodipodi="http://sodipodi.sourceforge.net/DTD/sodipodi-0.dtd"
   xmlns:inkscape="http://www.inkscape.org/namespaces/inkscape"
   version="1.1"
   id="Capa_1"
   x="0px"
   y="0px"
   viewBox="0 0 512 512"
   style="enable-background:new 0 0 512 512;"
   xml:space="preserve"
   sodipodi:docname="cube.svg"
   inkscape:version="1.0.2 (e86c870879, 2021-01-15, custom)"><metadata
   id="metadata289"><rdf:RDF><cc:Work
       rdf:about=""><dc:format>image/svg+xml</dc:format><dc:type
         rdf:resource="http://purl.org/dc/dcmitype/StillImage" /><dc:title></dc:title></cc:Work></rdf:RDF></metadata><defs
   id="defs287"><linearGradient
     inkscape:collect="always"
     id="linearGradient1270"><stop
       style="stop-color:#ffffff;stop-opacity:1"
       offset="0"
       id="stop1266" /><stop
       style="stop-color:#ffffff;stop-opacity:0"
       offset="1"
       id="stop1268" /></linearGradient><radialGradient
     inkscape:collect="always"
     xlink:href="#linearGradient1270"
     id="radialGradient1272"
     cx="256.44406"
     cy="254.28907"
     fx="256.44406"
     fy="82.608017"
     r="212.62589"
     gradientUnits="userSpaceOnUse"
     gradientTransform="matrix(-0.73042406,0.68299392,-0.72972974,-0.78040542,593.07516,171.54231)" /></defs><sodipodi:namedview
   pagecolor="#ffffff"
   bordercolor="#666666"
   borderopacity="1"
   objecttolerance="10"
   gridtolerance="10"
   guidetolerance="10"
   inkscape:pageopacity="0"
   inkscape:pageshadow="2"
   inkscape:window-width="2560"
   inkscape:window-height="1361"
   id="namedview285"
   showgrid="false"
   inkscape:pagecheckerboard="true"
   inkscape:zoom="1.3921165"
   inkscape:cx="293.11997"
   inkscape:cy="219.60631"
   inkscape:window-x="-9"
   inkscape:window-y="-9"
   inkscape:window-maximized="1"
   inkscape:current-layer="layer2" />

























































<g
   inkscape:groupmode="layer"
   id="layer2"
   inkscape:label="Layer 2"><path
     style="fill:#dfdfdf;fill-opacity:0.96850395;stroke:none;stroke-width:1px;stroke-linecap:butt;stroke-linejoin:miter;stroke-opacity:1"
     d="M 88.354676,351.26371 256.44406,254.28907 423.81511,349.10872 256.44406,446.80169 Z"
     id="path1257" /><path
     style="fill:#003366;fill-opacity:1;stroke:none;stroke-width:1px;stroke-linecap:butt;stroke-linejoin:miter;stroke-opacity:1"
     d="M 91.227999,159.46941 88.354676,351.26371 256.44406,254.28907 255.72573,64.649763 Z"
     id="path1259" /><path
     style="fill:#ffcc00;fill-opacity:1;stroke:none;stroke-width:1px;stroke-linecap:butt;stroke-linejoin:miter;stroke-opacity:1"
     d="M 420.94179,159.46941 423.81511,349.10872 256.44406,254.28907 255.72573,64.649763 Z"
     id="path1261" /></g><g
   inkscape:groupmode="layer"
   id="layer3"
   inkscape:label="Layer 3"
   sodipodi:insensitive="true"><rect
     style="opacity:0.642623;fill:url(#radialGradient1272);fill-opacity:1;stroke:none;stroke-width:28.4359;stroke-dasharray:56.8717, 28.4359;stroke-dashoffset:145.023;stroke-opacity:0.4;paint-order:stroke fill markers;stop-color:#000000"
     id="rect1264"
     width="425.25177"
     height="425.25177"
     x="43.818176"
     y="41.663185" /></g><g
   inkscape:groupmode="layer"
   id="layer1"
   inkscape:label="Layer 1"
   style="display:inline"
   sodipodi:insensitive="true"><g
     id="g6">
	<g
   id="g4">
		<path
   d="m 15.851,107.291 -4.328,-2.5 c -3.585,-2.073 -8.17,-0.841 -10.239,2.745 -2.07,3.588 -0.841,8.175 2.744,10.245 l 4.328,2.5 c 1.181,0.683 2.469,1.006 3.741,1.006 2.59,0 5.11,-1.346 6.498,-3.751 2.07,-3.588 0.841,-8.175 -2.744,-10.245 z"
   id="path2" />
	</g>
</g><g
     id="g12">
	<g
   id="g10">
		<path
   d="m 51.348,127.791 -8.874,-5.125 c -3.585,-2.074 -8.17,-0.842 -10.239,2.746 -2.07,3.587 -0.841,8.174 2.745,10.244 l 8.874,5.125 c 1.181,0.683 2.469,1.006 3.741,1.006 2.59,0 5.11,-1.346 6.499,-3.752 2.068,-3.587 0.839,-8.174 -2.746,-10.244 z"
   id="path8" />
	</g>
</g><g
     id="g18">
	<g
   id="g16">
		<path
   d="m 335.316,291.789 -8.874,-5.125 c -3.586,-2.074 -8.17,-0.842 -10.239,2.746 -2.07,3.587 -0.841,8.174 2.745,10.244 l 8.873,5.125 c 1.181,0.683 2.469,1.006 3.741,1.006 2.59,0 5.11,-1.346 6.499,-3.752 2.07,-3.587 0.841,-8.174 -2.745,-10.244 z"
   id="path14" />
	</g>
</g><g
     id="g24">
	<g
   id="g22">
		<path
   d="m 406.308,332.789 -8.874,-5.125 c -3.585,-2.073 -8.17,-0.842 -10.24,2.746 -2.07,3.587 -0.841,8.174 2.745,10.244 l 8.874,5.125 c 1.18,0.683 2.469,1.006 3.741,1.006 2.59,0 5.11,-1.346 6.499,-3.752 2.07,-3.587 0.841,-8.174 -2.745,-10.244 z"
   id="path20" />
	</g>
</g><g
     id="g30">
	<g
   id="g28">
		<path
   d="m 370.812,312.289 -8.874,-5.125 c -3.586,-2.074 -8.169,-0.843 -10.24,2.746 -2.07,3.587 -0.841,8.174 2.745,10.244 l 8.874,5.125 c 1.181,0.683 2.469,1.006 3.741,1.006 2.59,0 5.11,-1.346 6.499,-3.752 2.07,-3.587 0.841,-8.174 -2.745,-10.244 z"
   id="path26" />
	</g>
</g><g
     id="g36">
	<g
   id="g34">
		<path
   d="m 299.82,271.289 -8.874,-5.125 c -3.585,-2.074 -8.169,-0.842 -10.24,2.746 -2.07,3.587 -0.841,8.174 2.745,10.244 l 8.874,5.125 c 1.18,0.683 2.469,1.006 3.741,1.006 2.59,0 5.11,-1.346 6.499,-3.752 2.07,-3.587 0.841,-8.174 -2.745,-10.244 z"
   id="path32" />
	</g>
</g><g
     id="g42">
	<g
   id="g40">
		<path
   d="m 477.3,373.788 -8.874,-5.125 c -3.586,-2.074 -8.169,-0.843 -10.24,2.746 -2.07,3.587 -0.841,8.174 2.745,10.244 l 8.874,5.125 c 1.181,0.683 2.469,1.006 3.741,1.006 2.59,0 5.11,-1.346 6.499,-3.752 2.07,-3.587 0.841,-8.174 -2.745,-10.244 z"
   id="path38" />
	</g>
</g><g
     id="g48">
	<g
   id="g46">
		<path
   d="m 508.25,391.663 -4.328,-2.5 c -3.586,-2.074 -8.169,-0.842 -10.239,2.745 -2.07,3.588 -0.841,8.175 2.744,10.245 l 4.328,2.5 c 1.18,0.683 2.469,1.006 3.741,1.006 2.59,0 5.11,-1.346 6.498,-3.751 2.07,-3.588 0.842,-8.175 -2.744,-10.245 z"
   id="path44" />
	</g>
</g><g
     id="g54">
	<g
   id="g52">
		<path
   d="m 15.85,301.067 -4.328,-2.499 c -3.586,-2.071 -8.169,-0.84 -10.239,2.747 -2.069,3.588 -0.84,8.175 2.746,10.245 l 4.328,2.499 c 1.18,0.682 2.468,1.005 3.74,1.005 2.591,0 5.111,-1.346 6.499,-3.752 2.07,-3.587 0.84,-8.174 -2.746,-10.245 z"
   id="path50" />
	</g>
</g><g
     id="g60">
	<g
   id="g58">
		<path
   d="m 292.096,460.604 -8.633,-4.985 c -3.585,-2.071 -8.17,-0.841 -10.239,2.747 -2.07,3.588 -0.84,8.174 2.745,10.245 l 8.633,4.985 c 1.181,0.682 2.468,1.005 3.74,1.005 2.59,0 5.111,-1.346 6.499,-3.752 2.069,-3.588 0.84,-8.174 -2.745,-10.245 z"
   id="path56" />
	</g>
</g><g
     id="g66">
	<g
   id="g64">
		<path
   d="m 326.626,480.546 -8.632,-4.985 c -3.583,-2.07 -8.17,-0.841 -10.239,2.747 -2.07,3.587 -0.841,8.174 2.745,10.245 l 8.632,4.985 c 1.18,0.682 2.468,1.005 3.74,1.005 2.59,0 5.11,-1.346 6.499,-3.752 2.07,-3.587 0.841,-8.174 -2.745,-10.245 z"
   id="path62" />
	</g>
</g><g
     id="g72">
	<g
   id="g70">
		<path
   d="m 50.381,321.009 -8.632,-4.985 c -3.584,-2.07 -8.17,-0.841 -10.239,2.747 -2.07,3.586 -0.841,8.173 2.745,10.245 l 8.632,4.985 c 1.18,0.682 2.468,1.005 3.74,1.005 2.59,0 5.11,-1.346 6.499,-3.752 2.07,-3.587 0.841,-8.174 -2.745,-10.245 z"
   id="path68" />
	</g>
</g><g
     id="g78">
	<g
   id="g76">
		<path
   d="m 356.852,498.004 -4.328,-2.5 c -3.585,-2.071 -8.17,-0.843 -10.239,2.745 -2.07,3.587 -0.842,8.174 2.744,10.245 l 4.328,2.5 c 1.18,0.682 2.469,1.006 3.741,1.006 2.59,0 5.11,-1.345 6.498,-3.751 2.07,-3.587 0.842,-8.174 -2.744,-10.245 z"
   id="path74" />
	</g>
</g><g
     id="g84">
	<g
   id="g82">
		<path
   d="m 510.994,107.536 c -2.069,-3.588 -6.656,-4.814 -10.239,-2.745 l -4.328,2.5 c -3.585,2.07 -4.814,6.657 -2.744,10.245 1.388,2.406 3.908,3.751 6.498,3.751 1.272,0 2.561,-0.324 3.741,-1.006 l 4.328,-2.5 c 3.585,-2.07 4.814,-6.657 2.744,-10.245 z"
   id="path80" />
	</g>
</g><g
     id="g90">
	<g
   id="g88">
		<path
   d="m 160.581,309.91 c -2.07,-3.589 -6.654,-4.818 -10.239,-2.746 l -8.874,5.125 c -3.585,2.07 -4.814,6.657 -2.745,10.244 1.387,2.407 3.907,3.752 6.498,3.752 1.271,0 2.56,-0.324 3.741,-1.006 l 8.874,-5.125 c 3.585,-2.07 4.814,-6.657 2.745,-10.244 z"
   id="path86" />
	</g>
</g><g
     id="g96">
	<g
   id="g94">
		<path
   d="m 125.085,330.41 c -2.07,-3.589 -6.654,-4.818 -10.239,-2.746 l -8.874,5.125 c -3.585,2.07 -4.814,6.657 -2.745,10.244 1.387,2.407 3.907,3.752 6.498,3.752 1.271,0 2.56,-0.324 3.741,-1.006 l 8.874,-5.125 c 3.585,-2.07 4.814,-6.657 2.745,-10.244 z"
   id="path92" />
	</g>
</g><g
     id="g102">
	<g
   id="g100">
		<path
   d="m 54.092,371.409 c -2.07,-3.589 -6.654,-4.817 -10.24,-2.746 l -8.874,5.125 c -3.585,2.07 -4.814,6.657 -2.745,10.244 1.388,2.407 3.908,3.752 6.499,3.752 1.272,0 2.56,-0.324 3.741,-1.006 l 8.874,-5.125 c 3.585,-2.07 4.814,-6.657 2.745,-10.244 z"
   id="path98" />
	</g>
</g><g
     id="g108">
	<g
   id="g106">
		<path
   d="m 480.045,125.412 c -2.071,-3.589 -6.655,-4.817 -10.24,-2.746 l -8.874,5.125 c -3.585,2.07 -4.814,6.657 -2.745,10.244 1.389,2.407 3.908,3.752 6.499,3.752 1.271,0 2.56,-0.324 3.741,-1.006 l 8.874,-5.125 c 3.585,-2.07 4.814,-6.657 2.745,-10.244 z"
   id="path104" />
	</g>
</g><g
     id="g114">
	<g
   id="g112">
		<path
   d="m 196.077,289.41 c -2.07,-3.588 -6.654,-4.817 -10.239,-2.746 l -8.874,5.125 c -3.585,2.07 -4.814,6.657 -2.745,10.244 1.387,2.407 3.907,3.752 6.498,3.752 1.271,0 2.56,-0.324 3.741,-1.006 l 8.874,-5.125 c 3.585,-2.07 4.814,-6.657 2.745,-10.244 z"
   id="path110" />
	</g>
</g><g
     id="g120">
	<g
   id="g118">
		<path
   d="m 231.573,268.91 c -2.07,-3.589 -6.654,-4.818 -10.239,-2.746 l -8.874,5.125 c -3.585,2.07 -4.814,6.657 -2.745,10.244 1.387,2.408 3.907,3.752 6.498,3.752 1.271,0 2.56,-0.324 3.741,-1.006 l 8.874,-5.125 c 3.585,-2.07 4.814,-6.657 2.745,-10.244 z"
   id="path116" />
	</g>
</g><g
     id="g126">
	<g
   id="g124">
		<path
   d="m 18.596,391.908 c -2.07,-3.588 -6.656,-4.816 -10.239,-2.745 l -4.328,2.5 c -3.585,2.07 -4.814,6.657 -2.744,10.245 1.388,2.406 3.908,3.751 6.498,3.751 1.272,0 2.561,-0.324 3.741,-1.006 l 4.328,-2.5 c 3.585,-2.07 4.814,-6.657 2.744,-10.245 z"
   id="path122" />
	</g>
</g><g
     id="g132">
	<g
   id="g130">
		<path
   d="m 510.995,301.315 c -2.07,-3.587 -6.656,-4.818 -10.239,-2.747 l -4.328,2.499 c -3.586,2.07 -4.815,6.657 -2.746,10.245 1.388,2.407 3.909,3.752 6.499,3.752 1.271,0 2.56,-0.323 3.74,-1.005 l 4.328,-2.499 c 3.586,-2.07 4.814,-6.657 2.746,-10.245 z"
   id="path128" />
	</g>
</g><g
     id="g138">
	<g
   id="g136">
		<path
   d="m 204.524,478.308 c -2.07,-3.589 -6.655,-4.816 -10.239,-2.747 l -8.632,4.985 c -3.586,2.071 -4.815,6.658 -2.745,10.245 1.388,2.407 3.908,3.752 6.499,3.752 1.271,0 2.56,-0.324 3.74,-1.005 l 8.632,-4.985 c 3.586,-2.071 4.815,-6.658 2.745,-10.245 z"
   id="path134" />
	</g>
</g><g
     id="g144">
	<g
   id="g142">
		<path
   d="m 441.803,353.288 -2.904,-1.677 4.593,-2.653 c 3.585,-2.071 4.815,-6.657 2.745,-10.245 -2.07,-3.588 -6.655,-4.819 -10.239,-2.747 l -7.461,4.309 V 320 c 0,-4.143 -3.356,-7.5 -7.496,-7.5 -4.14,0 -7.496,3.357 -7.496,7.5 v 28.933 l -12.072,6.972 c -0.002,0.001 -0.004,0.002 -0.005,0.003 l -8.632,4.985 c -0.001,0.001 -0.002,0.001 -0.004,0.002 L 263.627,435.51 v -3.511 c 0,-4.143 -3.356,-7.5 -7.496,-7.5 -4.14,0 -7.496,3.357 -7.496,7.5 v 3.511 L 98.725,348.933 V 223.667 c 0,-4.143 -3.356,-7.5 -7.496,-7.5 -4.14,0 -7.496,3.357 -7.496,7.5 V 340.27 l -7.455,-4.305 c -3.586,-2.071 -8.17,-0.841 -10.239,2.747 -2.07,3.588 -0.84,8.174 2.745,10.245 l 4.593,2.653 -2.904,1.677 c -3.585,2.07 -4.814,6.657 -2.745,10.244 1.388,2.407 3.908,3.752 6.499,3.752 1.272,0 2.56,-0.324 3.741,-1.006 l 8.874,-5.125 c 0.492,-0.284 0.936,-0.62 1.337,-0.99 l 164.206,94.831 c 0.005,0.003 0.011,0.005 0.017,0.008 0.215,0.124 0.44,0.227 0.666,0.328 0.076,0.034 0.148,0.077 0.224,0.108 0.199,0.081 0.404,0.142 0.609,0.206 0.107,0.033 0.211,0.077 0.319,0.106 0.209,0.055 0.424,0.088 0.638,0.125 0.104,0.018 0.207,0.047 0.311,0.061 0.321,0.042 0.646,0.063 0.971,0.063 0.957,0 1.924,-0.185 2.846,-0.565 0.171,-0.07 0.334,-0.163 0.501,-0.246 0.131,-0.066 0.264,-0.119 0.393,-0.193 l 2.298,-1.327 c 0.01,-0.006 0.02,-0.009 0.029,-0.015 l 8.632,-4.985 c 0.012,-0.007 0.023,-0.016 0.035,-0.022 l 25.843,-14.925 c 0.007,-0.003 0.014,-0.006 0.02,-0.01 l 8.633,-4.986 c 0.005,-0.003 0.009,-0.006 0.014,-0.009 l 25.87,-14.94 c 0.005,-0.002 0.01,-0.004 0.014,-0.007 l 8.632,-4.986 c 0.001,0 0.001,-10e-4 0.002,-10e-4 l 25.888,-14.95 c 0.002,-0.001 0.005,-0.002 0.007,-0.003 l 8.633,-4.985 c 0.004,-0.002 0.007,-0.005 0.011,-0.007 l 49.653,-28.675 c 0.402,0.371 0.846,0.707 1.339,0.992 l 8.874,5.125 c 1.181,0.683 2.469,1.006 3.741,1.006 2.59,0 5.11,-1.346 6.499,-3.752 2.071,-3.587 0.842,-8.174 -2.744,-10.244 z"
   id="path140" />
	</g>
</g><g
     id="g150">
	<g
   id="g148">
		<path
   d="m 239.055,458.365 c -2.069,-3.586 -6.655,-4.818 -10.239,-2.747 l -8.633,4.985 c -3.585,2.071 -4.815,6.657 -2.745,10.245 1.388,2.406 3.908,3.752 6.499,3.752 1.271,0 2.56,-0.323 3.74,-1.005 l 8.633,-4.985 c 3.585,-2.071 4.815,-6.657 2.745,-10.245 z"
   id="path146" />
	</g>
</g><g
     id="g156">
	<g
   id="g154">
		<path
   d="m 480.769,318.77 c -2.07,-3.589 -6.654,-4.815 -10.239,-2.747 l -8.632,4.985 c -3.586,2.071 -4.815,6.658 -2.745,10.245 1.388,2.407 3.908,3.752 6.499,3.752 1.271,0 2.56,-0.324 3.74,-1.005 l 8.632,-4.985 c 3.585,-2.071 4.815,-6.658 2.745,-10.245 z"
   id="path152" />
	</g>
</g><g
     id="g162">
	<g
   id="g160">
		<path
   d="m 169.993,498.249 c -2.069,-3.587 -6.655,-4.815 -10.239,-2.745 l -4.328,2.5 c -3.585,2.071 -4.814,6.658 -2.744,10.245 1.388,2.406 3.908,3.751 6.498,3.751 1.272,0 2.561,-0.324 3.741,-1.006 l 4.328,-2.5 c 3.585,-2.071 4.814,-6.658 2.744,-10.245 z"
   id="path158" />
	</g>
</g><g
     id="g168">
	<g
   id="g166">
		<path
   d="m 508.268,201.522 -4.321,-2.513 c -3.578,-2.079 -8.167,-0.862 -10.247,2.718 -2.08,3.581 -0.864,8.172 2.716,10.253 l 4.321,2.512 c 1.185,0.688 2.48,1.016 3.759,1.016 2.583,0 5.097,-1.338 6.488,-3.733 2.08,-3.581 0.864,-8.172 -2.716,-10.253 z"
   id="path164" />
	</g>
</g><g
     id="g174">
	<g
   id="g172">
		<path
   d="m 236.715,43.629 -8.621,-5.013 c -3.578,-2.08 -8.167,-0.865 -10.247,2.716 -2.082,3.58 -0.866,8.171 2.713,10.252 l 8.621,5.013 c 1.185,0.689 2.481,1.017 3.76,1.017 2.583,0 5.096,-1.337 6.488,-3.732 2.08,-3.581 0.865,-8.172 -2.714,-10.253 z"
   id="path170" />
	</g>
</g><g
     id="g180">
	<g
   id="g178">
		<path
   d="m 202.233,23.58 -8.621,-5.013 c -3.578,-2.081 -8.167,-0.865 -10.247,2.716 -2.08,3.581 -0.866,8.171 2.713,10.252 l 8.621,5.013 c 1.185,0.689 2.481,1.017 3.76,1.017 2.583,0 5.096,-1.337 6.488,-3.732 2.08,-3.581 0.865,-8.172 -2.714,-10.253 z"
   id="path176" />
	</g>
</g><g
     id="g186">
	<g
   id="g184">
		<path
   d="m 478.087,183.973 -8.62,-5.013 c -3.578,-2.08 -8.167,-0.865 -10.247,2.716 -2.08,3.581 -0.865,8.172 2.714,10.253 l 8.62,5.013 c 1.185,0.689 2.481,1.017 3.76,1.017 2.583,0 5.096,-1.337 6.488,-3.732 2.08,-3.582 0.865,-8.173 -2.715,-10.254 z"
   id="path182" />
	</g>
</g><g
     id="g192">
	<g
   id="g190">
		<path
   d="m 443.604,163.924 -7.6,-4.418 5.799,-3.349 c 3.585,-2.07 4.814,-6.657 2.745,-10.244 -2.071,-3.59 -6.655,-4.818 -10.24,-2.746 l -8.874,5.125 c -1.378,0.795 -2.404,1.964 -3.032,3.304 l -162.5,-94.578 c -0.022,-0.013 -0.046,-0.021 -0.068,-0.034 -0.266,-0.151 -0.539,-0.29 -0.824,-0.409 -0.01,-0.004 -0.021,-0.007 -0.031,-0.011 -0.264,-0.108 -0.538,-0.199 -0.816,-0.277 -0.075,-0.021 -0.15,-0.04 -0.225,-0.058 -0.221,-0.055 -0.446,-0.099 -0.674,-0.134 -0.079,-0.012 -0.158,-0.027 -0.237,-0.036 -0.288,-0.034 -0.579,-0.057 -0.876,-0.057 -0.011,0 -0.022,0 -0.033,0 -0.297,0 -0.589,0.023 -0.877,0.057 -0.079,0.009 -0.157,0.024 -0.236,0.036 -0.23,0.035 -0.455,0.079 -0.678,0.134 -0.074,0.019 -0.148,0.036 -0.221,0.057 -0.284,0.08 -0.563,0.171 -0.832,0.283 -0.005,0.002 -0.01,0.003 -0.015,0.005 -0.288,0.12 -0.565,0.26 -0.833,0.414 -0.02,0.012 -0.042,0.019 -0.062,0.031 L 89.876,151.595 c -0.628,-1.339 -1.654,-2.508 -3.032,-3.304 l -8.874,-5.125 c -3.585,-2.074 -8.17,-0.842 -10.239,2.746 -2.07,3.587 -0.841,8.174 2.745,10.244 l 5.78,3.338 -7.642,4.428 c -3.582,2.076 -4.804,6.665 -2.73,10.249 1.39,2.401 3.907,3.742 6.493,3.742 1.275,0 2.567,-0.325 3.75,-1.011 l 7.607,-4.408 v 19.339 c 0,4.143 3.356,7.5 7.496,7.5 4.14,0 7.496,-3.357 7.496,-7.5 v -19.362 l 145.527,84.046 c -0.157,1.517 0.137,3.095 0.957,4.517 0.819,1.42 2.037,2.459 3.427,3.082 V 399.25 c 0,4.143 3.356,7.5 7.496,7.5 4.14,0 7.496,-3.357 7.496,-7.5 V 264.121 c 1.395,-0.622 2.618,-1.663 3.44,-3.088 0.822,-1.424 1.116,-3.004 0.957,-4.523 l 145.502,-84.024 c 0.018,-0.011 -0.001,0 0.018,-0.011 V 287.5 c 0,4.143 3.356,7.5 7.496,7.5 4.14,0 7.496,-3.357 7.496,-7.5 V 172.512 l 7.534,4.38 c 1.185,0.689 2.48,1.017 3.759,1.017 2.583,0 5.097,-1.337 6.488,-3.733 2.08,-3.581 0.864,-8.171 -2.715,-10.252 z M 256.135,246.06 106.183,159.46 249.124,76.65 249.29,76.554 c 1.169,2.62 3.79,4.448 6.843,4.448 3.147,0 5.837,-1.942 6.948,-4.693 l 0.582,0.338 c 0.307,0.179 0.621,0.331 0.941,0.461 l 24.157,14.059 c 0.243,0.184 0.495,0.36 0.765,0.517 l 8.62,5.012 c 0.25,0.146 0.507,0.266 0.766,0.38 l 24.417,14.21 c 0.216,0.159 0.441,0.309 0.678,0.447 l 8.621,5.013 c 0.18,0.104 0.366,0.185 0.55,0.272 l 24.832,14.453 c 0.156,0.107 0.313,0.215 0.48,0.312 l 8.621,5.012 c 0.103,0.06 0.212,0.102 0.317,0.157 l 25.351,14.754 c 0.066,0.041 0.126,0.087 0.193,0.126 l 8.62,5.013 c 0.034,0.02 0.07,0.032 0.104,0.052 l 4.4,2.561 z"
   id="path188" />
	</g>
</g><g
     id="g198">
	<g
   id="g196">
		<path
   d="M 167.751,3.531 163.43,1.018 c -3.578,-2.082 -8.167,-0.865 -10.247,2.716 -2.082,3.58 -0.867,8.171 2.713,10.252 l 4.321,2.513 c 1.185,0.689 2.481,1.017 3.76,1.017 2.583,0 5.096,-1.337 6.488,-3.732 2.08,-3.581 0.865,-8.172 -2.714,-10.253 z"
   id="path194" />
	</g>
</g><g
     id="g204">
	<g
   id="g202">
		<path
   d="m 18.308,201.741 c -2.076,-3.585 -6.661,-4.807 -10.243,-2.731 l -4.324,2.506 c -3.583,2.076 -4.804,6.665 -2.73,10.249 1.39,2.401 3.906,3.742 6.493,3.742 1.275,0 2.567,-0.325 3.75,-1.011 l 4.324,-2.506 c 3.583,-2.076 4.804,-6.665 2.73,-10.249 z"
   id="path200" />
	</g>
</g><g
     id="g210">
	<g
   id="g208">
		<path
   d="m 329.701,21.287 c -2.075,-3.585 -6.661,-4.807 -10.243,-2.731 l -8.65,5.012 c -3.583,2.075 -4.805,6.664 -2.73,10.249 1.39,2.401 3.907,3.742 6.494,3.742 1.275,0 2.567,-0.325 3.749,-1.011 l 8.65,-5.012 c 3.582,-2.075 4.805,-6.664 2.73,-10.249 z"
   id="path206" />
	</g>
</g><g
     id="g216">
	<g
   id="g214">
		<path
   d="m 295.103,41.337 c -2.075,-3.585 -6.662,-4.807 -10.243,-2.731 l -8.65,5.013 c -3.582,2.076 -4.804,6.665 -2.73,10.249 1.389,2.401 3.906,3.742 6.493,3.742 1.275,0 2.567,-0.325 3.75,-1.011 l 8.65,-5.013 c 3.582,-2.076 4.804,-6.665 2.73,-10.249 z"
   id="path212" />
	</g>
</g><g
     id="g222">
	<g
   id="g220">
		<path
   d="m 52.908,181.691 c -2.075,-3.585 -6.661,-4.807 -10.243,-2.731 l -8.65,5.013 c -3.583,2.076 -4.804,6.665 -2.73,10.249 1.389,2.402 3.906,3.742 6.493,3.742 1.275,0 2.567,-0.325 3.75,-1.011 l 8.65,-5.013 c 3.583,-2.076 4.804,-6.665 2.73,-10.249 z"
   id="path218" />
	</g>
</g><g
     id="g228">
	<g
   id="g226">
		<path
   d="M 359.975,3.741 C 357.9,0.157 353.313,-1.064 349.732,1.012 l -4.324,2.507 c -3.582,2.076 -4.804,6.665 -2.728,10.249 1.389,2.4 3.905,3.741 6.492,3.741 1.275,0 2.568,-0.326 3.751,-1.012 l 4.324,-2.507 c 3.582,-2.076 4.804,-6.665 2.728,-10.249 z"
   id="path224" />
	</g>
</g><g
     id="g234">
	<g
   id="g232">
		<path
   d="m 256.133,216 c -4.14,0 -7.496,3.357 -7.496,7.5 v 10 c 0,4.143 3.356,7.5 7.496,7.5 4.14,0 7.496,-3.357 7.496,-7.5 v -10 c 0,-4.142 -3.356,-7.5 -7.496,-7.5 z"
   id="path230" />
	</g>
</g><g
     id="g240">
	<g
   id="g238">
		<path
   d="m 256.133,96.001 c -4.14,0 -7.496,3.357 -7.496,7.5 v 10 c 0,4.143 3.356,7.5 7.496,7.5 4.14,0 7.496,-3.357 7.496,-7.5 v -10 c 0,-4.143 -3.356,-7.5 -7.496,-7.5 z"
   id="path236" />
	</g>
</g><g
     id="g246">
	<g
   id="g244">
		<path
   d="m 256.133,136.001 c -4.14,0 -7.496,3.357 -7.496,7.5 v 10 c 0,4.143 3.356,7.5 7.496,7.5 4.14,0 7.496,-3.357 7.496,-7.5 v -10 c 0,-4.143 -3.356,-7.5 -7.496,-7.5 z"
   id="path242" />
	</g>
</g><g
     id="g252">
	<g
   id="g250">
		<path
   d="m 256.133,176.001 c -4.14,0 -7.496,3.357 -7.496,7.5 v 10 c 0,4.143 3.356,7.5 7.496,7.5 4.14,0 7.496,-3.357 7.496,-7.5 v -10 c 0,-4.143 -3.356,-7.5 -7.496,-7.5 z"
   id="path248" />
	</g>
</g><g
     id="g254">
</g><g
     id="g256">
</g><g
     id="g258">
</g><g
     id="g260">
</g><g
     id="g262">
</g><g
     id="g264">
</g><g
     id="g266">
</g><g
     id="g268">
</g><g
     id="g270">
</g><g
     id="g272">
</g><g
     id="g274">
</g><g
     id="g276">
</g><g
     id="g278">
</g><g
     id="g280">
</g><g
     id="g282">
</g></g></svg>
